<?xml version="1.0" encoding="utf-8"?>
<!-- Generator: Adobe Illustrator 24.1.2, SVG Export Plug-In . SVG Version: 6.00 Build 0)  -->
<svg version="1.1" id="Layer_1" xmlns="http://www.w3.org/2000/svg" xmlns:xlink="http://www.w3.org/1999/xlink" x="0px" y="0px"
	 viewBox="0 0 300 400" style="enable-background:new 0 0 300 400;" xml:space="preserve">
<style type="text/css">
	.st0{fill:#676E80;}
	.st1{fill:#FAEBD7;}
</style>
<rect class="st0" width="300" height="400" fill="#676e80"/>
<path class="st1" d="M138.5,44.9c-1.6,1.7-2.6,2.7-3.1,4.4c-1.5,6.1,6.1,12.7,5.4,13.5c-0.1,0.1-0.8-0.2-2.3-1.1
	c-8.8-5-14.7,0-28.4,5c-13.7,5-22.5,18.9-27.4,29.8c-4.9,10.9-4.9,20.9-4.9,34.8c0,9.6,3.3,16.9,5.3,20.4c-1.6-1.8-4.6-4-10.2-4.5
	c-9.8-1-4.9,27.8,0,35.8s8.8-7,8.8-7s3.9,10.9,3.9,21.9c0,10.9,20.5,36.8,20.5,36.8s8.8,13.9,0,34.8C97.4,290.6,0,304.5,0,304.5V400
	h153h147v-95.5c0,0-90.4-13.9-99.2-34.8c-8.8-20.9,0-34.8,0-34.8s20.5-25.9,20.5-36.8c0-10.9,3.9-21.9,3.9-21.9s3.9,14.9,8.8,7
	s9.8-36.8,0-35.8c-5.6,0.6-8.6,2.8-10.2,4.5c2-3.6,5.3-10.8,5.3-20.4c0-13.9,0-23.9-4.9-34.8c-4.9-10.9-13.7-24.9-27.4-29.8
	c-13.7-5-19.6-9.9-28.4-5c-7.4,4.2,5.3-4.3,3.1-12.5c-0.5-1.7-1.4-2.7-3.1-4.4C166.9,43.2,150,42,155,38S140,43.4,138.5,44.9z"/>
<path class="st1" d="M434,257"/>
</svg>
